<?xml version="1.0" encoding="UTF-8"?>
<svg xmlns="http://www.w3.org/2000/svg" xmlns:xlink="http://www.w3.org/1999/xlink" width="500px" height="500px" viewBox="0 0 375 375" version="1.1">
<g id="surface1">
<rect x="0" y="0" width="375" height="375" style="fill:rgb(100%,100%,100%);fill-opacity:1;stroke:none;"/>
<path style=" stroke:none;fill-rule:nonzero;fill:rgb(0%,25.490196%,100%);fill-opacity:1;" d="M 103.734375 150.457031 L 132.519531 150.457031 L 132.519531 177.957031 L 103.734375 177.957031 Z M 103.734375 150.457031 "/>
<path style=" stroke:none;fill-rule:evenodd;fill:rgb(0%,0%,0%);fill-opacity:1;" d="M 122.621094 144.671875 C 120.464844 142.527344 115.554688 142.527344 113.402344 144.671875 C 112.039062 146.027344 111.273438 147.867188 111.273438 149.785156 L 111.273438 156.089844 C 111.273438 156.894531 110.617188 157.546875 109.804688 157.546875 C 108.996094 157.546875 108.339844 156.894531 108.339844 156.089844 L 108.339844 149.785156 C 108.339844 147.09375 109.414062 144.511719 111.328125 142.605469 C 114.628906 139.320312 121.394531 139.320312 124.695312 142.605469 C 126.609375 144.511719 127.914062 147.09375 127.914062 149.785156 L 127.914062 156.089844 C 127.914062 156.894531 127.257812 157.546875 126.445312 157.546875 C 125.636719 157.546875 124.980469 156.894531 124.980469 156.089844 L 124.980469 149.785156 C 124.980469 147.867188 123.984375 146.027344 122.621094 144.671875 Z M 122.621094 144.671875 "/>
<path style=" stroke:none;fill-rule:nonzero;fill:rgb(0%,1.176471%,6.666667%);fill-opacity:1;" d="M 103.734375 174.519531 L 132.519531 174.519531 L 132.519531 179.382812 L 103.734375 179.382812 Z M 103.734375 174.519531 "/>
<path style=" stroke:none;fill-rule:nonzero;fill:rgb(0%,0%,0%);fill-opacity:1;" d="M 156.59375 161.347656 L 156.59375 151.222656 L 154.8125 151.222656 L 154.8125 148.707031 L 156.59375 148.707031 C 156.46875 148.175781 156.40625 147.675781 156.40625 147.207031 C 156.40625 146.40625 156.585938 145.722656 156.953125 145.160156 C 157.316406 144.589844 157.84375 144.15625 158.53125 143.863281 C 159.21875 143.5625 160.035156 143.410156 160.984375 143.410156 C 162.378906 143.410156 163.421875 143.652344 164.109375 144.128906 L 163.375 146.457031 L 163.125 146.503906 C 162.65625 146.171875 162.050781 146.003906 161.3125 146.003906 C 160.738281 146.003906 160.304688 146.144531 160.015625 146.425781 C 159.734375 146.699219 159.59375 147.078125 159.59375 147.566406 C 159.59375 147.765625 159.601562 147.953125 159.625 148.128906 C 159.65625 148.296875 159.703125 148.488281 159.765625 148.707031 L 163.375 148.707031 L 163.375 151.222656 L 159.765625 151.222656 L 159.765625 161.347656 Z M 156.59375 161.347656 "/>
<path style=" stroke:none;fill-rule:nonzero;fill:rgb(0%,0%,0%);fill-opacity:1;" d="M 168.757812 161.582031 C 167.609375 161.582031 166.734375 161.277344 166.132812 160.660156 C 165.539062 160.046875 165.242188 159.113281 165.242188 157.863281 L 165.242188 143.644531 L 168.414062 143.644531 L 168.414062 157.738281 C 168.414062 158.511719 168.734375 158.894531 169.382812 158.894531 C 169.570312 158.894531 169.761719 158.863281 169.960938 158.800781 L 170.132812 158.847656 L 170.414062 161.285156 C 170.234375 161.378906 170 161.449219 169.710938 161.503906 C 169.417969 161.554688 169.101562 161.582031 168.757812 161.582031 Z M 168.757812 161.582031 "/>
<path style=" stroke:none;fill-rule:nonzero;fill:rgb(0%,0%,0%);fill-opacity:1;" d="M 183.257812 155.753906 L 175.132812 155.753906 C 175.226562 156.847656 175.539062 157.644531 176.070312 158.144531 C 176.609375 158.644531 177.339844 158.894531 178.257812 158.894531 C 178.984375 158.894531 179.574219 158.761719 180.023438 158.488281 C 180.46875 158.21875 180.835938 157.808594 181.117188 157.253906 L 181.351562 157.253906 L 183.460938 158.613281 C 183.042969 159.5 182.417969 160.21875 181.585938 160.769531 C 180.761719 161.3125 179.652344 161.582031 178.257812 161.582031 C 176.953125 161.582031 175.828125 161.339844 174.882812 160.847656 C 173.933594 160.347656 173.199219 159.609375 172.679688 158.628906 C 172.167969 157.652344 171.914062 156.453125 171.914062 155.035156 C 171.914062 153.597656 172.183594 152.390625 172.726562 151.410156 C 173.265625 150.421875 173.996094 149.6875 174.914062 149.207031 C 175.839844 148.71875 176.882812 148.472656 178.039062 148.472656 C 179.820312 148.472656 181.183594 148.949219 182.132812 149.894531 C 183.089844 150.84375 183.570312 152.234375 183.570312 154.066406 C 183.570312 154.734375 183.542969 155.25 183.492188 155.613281 Z M 180.523438 153.691406 C 180.5 152.734375 180.28125 152.035156 179.867188 151.597656 C 179.449219 151.160156 178.839844 150.941406 178.039062 150.941406 C 176.433594 150.941406 175.492188 151.859375 175.210938 153.691406 Z M 180.523438 153.691406 "/>
<path style=" stroke:none;fill-rule:nonzero;fill:rgb(0%,0%,0%);fill-opacity:1;" d="M 188.066406 161.347656 L 184.722656 161.347656 L 188.332031 154.800781 L 184.910156 148.722656 L 188.300781 148.722656 L 190.488281 152.878906 L 190.753906 152.878906 L 192.957031 148.722656 L 196.238281 148.722656 L 192.925781 154.800781 L 196.441406 161.347656 L 193.050781 161.347656 L 190.675781 156.738281 L 190.410156 156.738281 Z M 188.066406 161.347656 "/>
<path style=" stroke:none;fill-rule:nonzero;fill:rgb(0%,0%,0%);fill-opacity:1;" d="M 200.066406 147.207031 C 199.492188 147.207031 199.023438 147.035156 198.660156 146.691406 C 198.304688 146.339844 198.128906 145.886719 198.128906 145.332031 C 198.128906 144.792969 198.304688 144.347656 198.660156 144.003906 C 199.023438 143.660156 199.492188 143.488281 200.066406 143.488281 C 200.441406 143.488281 200.773438 143.566406 201.066406 143.722656 C 201.367188 143.878906 201.601562 144.097656 201.769531 144.378906 C 201.933594 144.660156 202.019531 144.980469 202.019531 145.332031 C 202.019531 145.699219 201.933594 146.019531 201.769531 146.300781 C 201.601562 146.582031 201.367188 146.808594 201.066406 146.972656 C 200.773438 147.128906 200.441406 147.207031 200.066406 147.207031 Z M 198.488281 161.347656 L 198.488281 148.722656 L 201.660156 148.722656 L 201.660156 161.347656 Z M 198.488281 161.347656 "/>
<path style=" stroke:none;fill-rule:nonzero;fill:rgb(0%,0%,0%);fill-opacity:1;" d="M 210.824219 161.582031 C 209.605469 161.582031 208.527344 161.332031 207.589844 160.832031 C 206.652344 160.324219 205.917969 159.578125 205.386719 158.597656 C 204.863281 157.609375 204.605469 156.421875 204.605469 155.035156 C 204.605469 153.652344 204.863281 152.46875 205.386719 151.488281 C 205.917969 150.5 206.644531 149.75 207.574219 149.238281 C 208.511719 148.730469 209.578125 148.472656 210.777344 148.472656 C 213.433594 148.472656 215.136719 149.441406 215.886719 151.378906 L 213.714844 152.925781 L 213.480469 152.925781 C 213.21875 152.332031 212.878906 151.890625 212.464844 151.597656 C 212.046875 151.308594 211.484375 151.160156 210.777344 151.160156 C 209.859375 151.160156 209.140625 151.480469 208.621094 152.113281 C 208.109375 152.75 207.855469 153.722656 207.855469 155.035156 C 207.855469 156.339844 208.113281 157.308594 208.636719 157.941406 C 209.15625 158.578125 209.886719 158.894531 210.824219 158.894531 C 211.511719 158.894531 212.09375 158.714844 212.574219 158.347656 C 213.050781 157.972656 213.394531 157.4375 213.605469 156.738281 L 213.839844 156.722656 L 216.089844 157.957031 C 215.777344 159.03125 215.183594 159.90625 214.308594 160.582031 C 213.441406 161.25 212.28125 161.582031 210.824219 161.582031 Z M 210.824219 161.582031 "/>
<path style=" stroke:none;fill-rule:nonzero;fill:rgb(0%,0%,0%);fill-opacity:1;" d="M 221.410156 161.582031 C 220.597656 161.582031 219.894531 161.433594 219.300781 161.144531 C 218.707031 160.84375 218.246094 160.40625 217.925781 159.832031 C 217.613281 159.261719 217.457031 158.566406 217.457031 157.753906 C 217.457031 157.003906 217.613281 156.378906 217.925781 155.878906 C 218.246094 155.371094 218.742188 154.953125 219.410156 154.628906 C 220.085938 154.296875 220.964844 154.042969 222.050781 153.863281 C 222.808594 153.75 223.382812 153.621094 223.769531 153.472656 C 224.164062 153.328125 224.429688 153.167969 224.566406 152.988281 C 224.710938 152.800781 224.785156 152.566406 224.785156 152.285156 C 224.785156 151.878906 224.636719 151.574219 224.347656 151.363281 C 224.066406 151.144531 223.597656 151.035156 222.941406 151.035156 C 222.242188 151.035156 221.574219 151.191406 220.941406 151.503906 C 220.304688 151.816406 219.757812 152.230469 219.300781 152.738281 L 219.066406 152.738281 L 217.738281 150.738281 C 218.371094 150.019531 219.152344 149.464844 220.082031 149.066406 C 221.007812 148.671875 222.019531 148.472656 223.113281 148.472656 C 224.777344 148.472656 225.988281 148.832031 226.738281 149.550781 C 227.488281 150.261719 227.863281 151.265625 227.863281 152.566406 L 227.863281 158.050781 C 227.863281 158.613281 228.105469 158.894531 228.597656 158.894531 C 228.792969 158.894531 228.980469 158.863281 229.160156 158.800781 L 229.332031 158.832031 L 229.550781 161.050781 C 229.371094 161.167969 229.128906 161.261719 228.816406 161.332031 C 228.503906 161.402344 228.160156 161.441406 227.785156 161.441406 C 227.035156 161.441406 226.445312 161.296875 226.019531 161.003906 C 225.589844 160.714844 225.289062 160.261719 225.113281 159.644531 L 224.863281 159.613281 C 224.246094 160.925781 223.097656 161.582031 221.410156 161.582031 Z M 222.425781 159.222656 C 223.152344 159.222656 223.738281 158.980469 224.175781 158.488281 C 224.613281 157.988281 224.832031 157.300781 224.832031 156.425781 L 224.832031 155.144531 L 224.613281 155.097656 C 224.425781 155.246094 224.175781 155.371094 223.863281 155.472656 C 223.558594 155.578125 223.117188 155.683594 222.535156 155.785156 C 221.847656 155.902344 221.351562 156.097656 221.050781 156.378906 C 220.746094 156.652344 220.597656 157.042969 220.597656 157.550781 C 220.597656 158.09375 220.757812 158.511719 221.082031 158.800781 C 221.402344 159.082031 221.851562 159.222656 222.425781 159.222656 Z M 222.425781 159.222656 "/>
<path style=" stroke:none;fill-rule:nonzero;fill:rgb(0%,0%,0%);fill-opacity:1;" d="M 231.636719 161.347656 L 231.636719 148.722656 L 234.714844 148.722656 L 234.714844 150.597656 L 234.949219 150.644531 C 235.25 149.9375 235.652344 149.421875 236.152344 149.097656 C 236.652344 148.765625 237.253906 148.597656 237.964844 148.597656 C 238.683594 148.597656 239.230469 148.722656 239.605469 148.972656 L 239.058594 151.707031 L 238.824219 151.753906 C 238.613281 151.671875 238.410156 151.609375 238.214844 151.566406 C 238.027344 151.527344 237.796875 151.503906 237.527344 151.503906 C 236.640625 151.503906 235.964844 151.816406 235.496094 152.441406 C 235.035156 153.066406 234.808594 154.066406 234.808594 155.441406 L 234.808594 161.347656 Z M 231.636719 161.347656 "/>
<path style=" stroke:none;fill-rule:nonzero;fill:rgb(0%,0%,0%);fill-opacity:1;" d="M 248.4375 158.332031 L 249.265625 160.675781 C 248.921875 160.96875 248.488281 161.191406 247.96875 161.347656 C 247.445312 161.503906 246.859375 161.582031 246.203125 161.582031 C 244.835938 161.582031 243.796875 161.214844 243.078125 160.472656 C 242.367188 159.722656 242.015625 158.640625 242.015625 157.222656 L 242.015625 151.222656 L 240.09375 151.222656 L 240.09375 148.707031 L 242.015625 148.707031 L 242.015625 146.238281 L 245.1875 145.722656 L 245.1875 148.707031 L 248.78125 148.707031 L 248.78125 151.222656 L 245.1875 151.222656 L 245.1875 156.988281 C 245.1875 157.625 245.316406 158.089844 245.578125 158.378906 C 245.835938 158.660156 246.21875 158.800781 246.71875 158.800781 C 247.28125 158.800781 247.769531 158.644531 248.1875 158.332031 Z M 248.4375 158.332031 "/>
<path style=" stroke:none;fill-rule:nonzero;fill:rgb(0%,0%,0%);fill-opacity:1;" d="M 148.300781 187.542969 C 148.089844 187.542969 147.894531 187.519531 147.707031 187.480469 C 147.519531 187.449219 147.355469 187.402344 147.222656 187.339844 L 147.394531 186.589844 L 147.503906 186.558594 C 147.597656 186.597656 147.710938 186.636719 147.847656 186.667969 C 147.980469 186.707031 148.121094 186.730469 148.269531 186.730469 C 148.527344 186.730469 148.742188 186.691406 148.910156 186.621094 C 149.074219 186.546875 149.214844 186.433594 149.332031 186.277344 C 149.457031 186.121094 149.570312 185.902344 149.675781 185.621094 L 149.894531 185.011719 L 147.363281 178.527344 L 148.363281 178.527344 L 150.363281 183.683594 L 150.472656 183.683594 L 152.394531 178.527344 L 153.347656 178.527344 L 150.519531 185.855469 C 150.363281 186.25 150.183594 186.574219 149.988281 186.824219 C 149.789062 187.074219 149.554688 187.253906 149.285156 187.371094 C 149.011719 187.484375 148.683594 187.542969 148.300781 187.542969 Z M 148.300781 187.542969 "/>
<path style=" stroke:none;fill-rule:nonzero;fill:rgb(0%,0%,0%);fill-opacity:1;" d="M 157.332031 184.980469 C 156.738281 184.980469 156.214844 184.855469 155.769531 184.605469 C 155.332031 184.347656 154.992188 183.972656 154.753906 183.480469 C 154.511719 182.992188 154.394531 182.398438 154.394531 181.699219 C 154.394531 180.992188 154.511719 180.394531 154.753906 179.902344 C 154.992188 179.414062 155.332031 179.042969 155.769531 178.792969 C 156.214844 178.535156 156.738281 178.402344 157.332031 178.402344 C 157.933594 178.402344 158.457031 178.535156 158.894531 178.792969 C 159.339844 179.042969 159.679688 179.414062 159.910156 179.902344 C 160.148438 180.394531 160.269531 180.992188 160.269531 181.699219 C 160.269531 182.398438 160.148438 182.992188 159.910156 183.480469 C 159.679688 183.972656 159.339844 184.347656 158.894531 184.605469 C 158.457031 184.855469 157.933594 184.980469 157.332031 184.980469 Z M 157.332031 184.136719 C 157.964844 184.136719 158.449219 183.941406 158.785156 183.542969 C 159.117188 183.148438 159.285156 182.535156 159.285156 181.699219 C 159.285156 180.855469 159.117188 180.238281 158.785156 179.839844 C 158.449219 179.445312 157.964844 179.246094 157.332031 179.246094 C 156.707031 179.246094 156.222656 179.449219 155.878906 179.855469 C 155.542969 180.253906 155.378906 180.867188 155.378906 181.699219 C 155.378906 182.535156 155.542969 183.148438 155.878906 183.542969 C 156.222656 183.941406 156.707031 184.136719 157.332031 184.136719 Z M 157.332031 184.136719 "/>
<path style=" stroke:none;fill-rule:nonzero;fill:rgb(0%,0%,0%);fill-opacity:1;" d="M 164.089844 184.980469 C 163.371094 184.980469 162.832031 184.792969 162.480469 184.417969 C 162.136719 184.035156 161.964844 183.476562 161.964844 182.746094 L 161.964844 178.527344 L 162.902344 178.527344 L 162.902344 182.714844 C 162.902344 183.683594 163.355469 184.167969 164.261719 184.167969 C 164.832031 184.167969 165.285156 183.980469 165.621094 183.605469 C 165.953125 183.230469 166.121094 182.621094 166.121094 181.777344 L 166.121094 178.527344 L 167.058594 178.527344 L 167.058594 184.855469 L 166.167969 184.855469 L 166.167969 183.855469 L 166.042969 183.839844 C 165.824219 184.226562 165.5625 184.511719 165.261719 184.699219 C 164.957031 184.886719 164.566406 184.980469 164.089844 184.980469 Z M 164.089844 184.980469 "/>
<path style=" stroke:none;fill-rule:nonzero;fill:rgb(0%,0%,0%);fill-opacity:1;" d="M 169.261719 184.855469 L 169.261719 178.527344 L 170.136719 178.527344 L 170.136719 179.527344 L 170.261719 179.542969 C 170.550781 178.824219 171.109375 178.464844 171.933594 178.464844 C 172.359375 178.464844 172.683594 178.542969 172.902344 178.699219 L 172.652344 179.496094 L 172.542969 179.527344 C 172.300781 179.402344 172.042969 179.339844 171.761719 179.339844 C 171.25 179.339844 170.859375 179.535156 170.589844 179.917969 C 170.316406 180.292969 170.183594 180.902344 170.183594 181.746094 L 170.183594 184.855469 Z M 169.261719 184.855469 "/>
<path style=" stroke:none;fill-rule:nonzero;fill:rgb(0%,0%,0%);fill-opacity:1;" d="M 179.917969 184.855469 L 178.636719 184.855469 L 176.230469 178.527344 L 177.230469 178.527344 L 179.230469 183.792969 L 179.355469 183.792969 L 181.339844 178.527344 L 182.324219 178.527344 Z M 179.917969 184.855469 "/>
<path style=" stroke:none;fill-rule:nonzero;fill:rgb(0%,0%,0%);fill-opacity:1;" d="M 188.65625 181.902344 L 184.3125 181.902344 C 184.332031 182.675781 184.515625 183.242188 184.859375 183.605469 C 185.203125 183.960938 185.671875 184.136719 186.265625 184.136719 C 186.710938 184.136719 187.070312 184.058594 187.34375 183.902344 C 187.625 183.738281 187.84375 183.480469 188 183.136719 L 188.125 183.136719 L 188.734375 183.496094 C 188.546875 183.957031 188.25 184.320312 187.84375 184.589844 C 187.445312 184.851562 186.921875 184.980469 186.265625 184.980469 C 185.648438 184.980469 185.125 184.859375 184.6875 184.621094 C 184.25 184.371094 183.910156 184.003906 183.671875 183.511719 C 183.429688 183.023438 183.3125 182.417969 183.3125 181.699219 C 183.3125 180.980469 183.4375 180.378906 183.6875 179.886719 C 183.945312 179.386719 184.289062 179.019531 184.71875 178.777344 C 185.15625 178.527344 185.648438 178.402344 186.203125 178.402344 C 187.015625 178.402344 187.648438 178.632812 188.109375 179.089844 C 188.566406 179.550781 188.796875 180.226562 188.796875 181.121094 C 188.796875 181.476562 188.789062 181.714844 188.78125 181.839844 Z M 187.875 181.121094 C 187.863281 180.457031 187.710938 179.972656 187.421875 179.667969 C 187.140625 179.355469 186.734375 179.199219 186.203125 179.199219 C 185.648438 179.199219 185.21875 179.355469 184.90625 179.667969 C 184.59375 179.972656 184.398438 180.457031 184.328125 181.121094 Z M 187.875 181.121094 "/>
<path style=" stroke:none;fill-rule:nonzero;fill:rgb(0%,0%,0%);fill-opacity:1;" d="M 190.480469 184.855469 L 190.480469 178.527344 L 191.355469 178.527344 L 191.355469 179.527344 L 191.480469 179.542969 C 191.769531 178.824219 192.328125 178.464844 193.152344 178.464844 C 193.578125 178.464844 193.902344 178.542969 194.121094 178.699219 L 193.871094 179.496094 L 193.761719 179.527344 C 193.519531 179.402344 193.261719 179.339844 192.980469 179.339844 C 192.46875 179.339844 192.078125 179.535156 191.808594 179.917969 C 191.535156 180.292969 191.402344 180.902344 191.402344 181.746094 L 191.402344 184.855469 Z M 190.480469 184.855469 "/>
<path style=" stroke:none;fill-rule:nonzero;fill:rgb(0%,0%,0%);fill-opacity:1;" d="M 195.523438 187.542969 C 195.3125 187.542969 195.117188 187.519531 194.929688 187.480469 C 194.742188 187.449219 194.578125 187.402344 194.445312 187.339844 L 194.617188 186.589844 L 194.726562 186.558594 C 194.820312 186.597656 194.933594 186.636719 195.070312 186.667969 C 195.203125 186.707031 195.34375 186.730469 195.492188 186.730469 C 195.75 186.730469 195.964844 186.691406 196.132812 186.621094 C 196.296875 186.546875 196.4375 186.433594 196.554688 186.277344 C 196.679688 186.121094 196.792969 185.902344 196.898438 185.621094 L 197.117188 185.011719 L 194.585938 178.527344 L 195.585938 178.527344 L 197.585938 183.683594 L 197.695312 183.683594 L 199.617188 178.527344 L 200.570312 178.527344 L 197.742188 185.855469 C 197.585938 186.25 197.40625 186.574219 197.210938 186.824219 C 197.011719 187.074219 196.777344 187.253906 196.507812 187.371094 C 196.234375 187.484375 195.90625 187.542969 195.523438 187.542969 Z M 195.523438 187.542969 "/>
<path style=" stroke:none;fill-rule:nonzero;fill:rgb(0%,0%,0%);fill-opacity:1;" d="M 207.429688 184.980469 C 206.835938 184.980469 206.3125 184.855469 205.867188 184.605469 C 205.429688 184.347656 205.089844 183.972656 204.851562 183.480469 C 204.609375 182.992188 204.492188 182.398438 204.492188 181.699219 C 204.492188 180.992188 204.609375 180.394531 204.851562 179.902344 C 205.089844 179.414062 205.429688 179.042969 205.867188 178.792969 C 206.3125 178.535156 206.835938 178.402344 207.429688 178.402344 C 208.03125 178.402344 208.554688 178.535156 208.992188 178.792969 C 209.4375 179.042969 209.777344 179.414062 210.007812 179.902344 C 210.246094 180.394531 210.367188 180.992188 210.367188 181.699219 C 210.367188 182.398438 210.246094 182.992188 210.007812 183.480469 C 209.777344 183.972656 209.4375 184.347656 208.992188 184.605469 C 208.554688 184.855469 208.03125 184.980469 207.429688 184.980469 Z M 207.429688 184.136719 C 208.0625 184.136719 208.546875 183.941406 208.882812 183.542969 C 209.214844 183.148438 209.382812 182.535156 209.382812 181.699219 C 209.382812 180.855469 209.214844 180.238281 208.882812 179.839844 C 208.546875 179.445312 208.0625 179.246094 207.429688 179.246094 C 206.804688 179.246094 206.320312 179.449219 205.976562 179.855469 C 205.640625 180.253906 205.476562 180.867188 205.476562 181.699219 C 205.476562 182.535156 205.640625 183.148438 205.976562 183.542969 C 206.320312 183.941406 206.804688 184.136719 207.429688 184.136719 Z M 207.429688 184.136719 "/>
<path style=" stroke:none;fill-rule:nonzero;fill:rgb(0%,0%,0%);fill-opacity:1;" d="M 214.207031 184.855469 L 213.019531 184.855469 L 211.472656 178.527344 L 212.394531 178.527344 L 213.597656 183.761719 L 213.722656 183.761719 L 215.191406 178.527344 L 216.175781 178.527344 L 217.691406 183.761719 L 217.816406 183.761719 L 218.988281 178.527344 L 219.878906 178.527344 L 218.347656 184.855469 L 217.160156 184.855469 L 215.722656 179.949219 L 215.597656 179.949219 Z M 214.207031 184.855469 "/>
<path style=" stroke:none;fill-rule:nonzero;fill:rgb(0%,0%,0%);fill-opacity:1;" d="M 221.402344 184.855469 L 221.402344 178.527344 L 222.277344 178.527344 L 222.277344 179.527344 L 222.402344 179.542969 C 222.609375 179.179688 222.875 178.898438 223.199219 178.699219 C 223.53125 178.503906 223.933594 178.402344 224.402344 178.402344 C 225.160156 178.402344 225.714844 178.601562 226.058594 178.996094 C 226.402344 179.382812 226.574219 179.976562 226.574219 180.777344 L 226.574219 184.855469 L 225.636719 184.855469 L 225.636719 180.808594 C 225.636719 180.425781 225.582031 180.117188 225.480469 179.886719 C 225.386719 179.660156 225.234375 179.492188 225.027344 179.386719 C 224.828125 179.273438 224.5625 179.214844 224.230469 179.214844 C 223.667969 179.214844 223.207031 179.410156 222.855469 179.792969 C 222.5 180.167969 222.324219 180.773438 222.324219 181.605469 L 222.324219 184.855469 Z M 221.402344 184.855469 "/>
<path style=" stroke:none;fill-rule:nonzero;fill:rgb(0%,0%,0%);fill-opacity:1;" d="M 231.71875 184.855469 L 231.71875 176.464844 L 234.90625 176.464844 C 235.414062 176.464844 235.847656 176.550781 236.203125 176.714844 C 236.566406 176.882812 236.835938 177.117188 237.015625 177.417969 C 237.203125 177.722656 237.296875 178.085938 237.296875 178.511719 C 237.296875 178.867188 237.195312 179.195312 237 179.496094 C 236.800781 179.789062 236.519531 180.019531 236.15625 180.183594 L 236.15625 180.292969 C 236.71875 180.441406 237.140625 180.695312 237.421875 181.058594 C 237.710938 181.414062 237.859375 181.867188 237.859375 182.417969 C 237.859375 183.199219 237.628906 183.804688 237.171875 184.230469 C 236.710938 184.648438 236.035156 184.855469 235.140625 184.855469 Z M 234.859375 179.996094 C 235.316406 179.996094 235.671875 179.878906 235.921875 179.636719 C 236.179688 179.386719 236.3125 179.050781 236.3125 178.621094 C 236.3125 178.175781 236.1875 177.839844 235.9375 177.621094 C 235.695312 177.394531 235.335938 177.277344 234.859375 177.277344 L 232.703125 177.277344 L 232.703125 179.996094 Z M 235.0625 184.042969 C 236.257812 184.042969 236.859375 183.503906 236.859375 182.417969 C 236.859375 181.347656 236.257812 180.808594 235.0625 180.808594 L 232.703125 180.808594 L 232.703125 184.042969 Z M 235.0625 184.042969 "/>
<path style=" stroke:none;fill-rule:nonzero;fill:rgb(0%,0%,0%);fill-opacity:1;" d="M 246.070312 184.855469 L 245.023438 184.855469 L 244.242188 182.558594 L 240.664062 182.558594 L 239.882812 184.855469 L 238.851562 184.855469 L 241.789062 176.464844 L 243.148438 176.464844 Z M 242.382812 177.480469 L 240.945312 181.730469 L 243.960938 181.730469 L 242.523438 177.480469 Z M 242.382812 177.480469 "/>
<path style=" stroke:none;fill-rule:nonzero;fill:rgb(0%,0%,0%);fill-opacity:1;" d="M 250.8125 184.980469 C 250.113281 184.980469 249.492188 184.820312 248.953125 184.496094 C 248.421875 184.175781 248.003906 183.691406 247.703125 183.042969 C 247.398438 182.398438 247.25 181.605469 247.25 180.667969 C 247.25 179.722656 247.410156 178.925781 247.734375 178.277344 C 248.054688 177.632812 248.503906 177.148438 249.078125 176.824219 C 249.648438 176.503906 250.3125 176.339844 251.0625 176.339844 C 251.863281 176.339844 252.519531 176.488281 253.03125 176.777344 C 253.550781 177.070312 253.921875 177.503906 254.140625 178.074219 L 253.484375 178.449219 L 253.34375 178.449219 C 253.125 178.011719 252.828125 177.699219 252.453125 177.511719 C 252.085938 177.324219 251.625 177.230469 251.0625 177.230469 C 249.21875 177.230469 248.296875 178.378906 248.296875 180.667969 C 248.296875 181.855469 248.523438 182.726562 248.984375 183.277344 C 249.453125 183.820312 250.101562 184.089844 250.9375 184.089844 C 251.707031 184.089844 252.28125 183.917969 252.65625 183.574219 C 253.039062 183.222656 253.234375 182.667969 253.234375 181.917969 L 253.234375 181.183594 L 250.84375 181.183594 L 250.84375 180.386719 L 254.1875 180.386719 L 254.1875 184.855469 L 253.28125 184.855469 L 253.28125 183.730469 L 253.15625 183.699219 C 252.9375 184.136719 252.628906 184.460938 252.234375 184.667969 C 251.835938 184.875 251.363281 184.980469 250.8125 184.980469 Z M 250.8125 184.980469 "/>
<path style=" stroke:none;fill-rule:nonzero;fill:rgb(0%,0%,0%);fill-opacity:1;" d="M 256.703125 177.308594 C 256.503906 177.308594 256.34375 177.246094 256.21875 177.121094 C 256.09375 176.996094 256.03125 176.839844 256.03125 176.652344 C 256.03125 176.457031 256.09375 176.292969 256.21875 176.167969 C 256.34375 176.042969 256.503906 175.980469 256.703125 175.980469 C 256.898438 175.980469 257.0625 176.042969 257.1875 176.167969 C 257.3125 176.292969 257.375 176.457031 257.375 176.652344 C 257.375 176.839844 257.3125 176.996094 257.1875 177.121094 C 257.0625 177.246094 256.898438 177.308594 256.703125 177.308594 Z M 256.234375 184.855469 L 256.234375 178.527344 L 257.15625 178.527344 L 257.15625 184.855469 Z M 256.234375 184.855469 "/>
<path style=" stroke:none;fill-rule:nonzero;fill:rgb(0%,0%,0%);fill-opacity:1;" d="M 261.152344 184.980469 C 260.753906 184.980469 260.386719 184.925781 260.042969 184.824219 C 259.707031 184.722656 259.421875 184.574219 259.183594 184.386719 C 258.953125 184.199219 258.792969 183.992188 258.699219 183.761719 L 259.246094 183.199219 L 259.371094 183.199219 C 259.566406 183.511719 259.8125 183.746094 260.105469 183.902344 C 260.394531 184.058594 260.746094 184.136719 261.152344 184.136719 C 261.609375 184.136719 261.957031 184.050781 262.199219 183.871094 C 262.449219 183.683594 262.574219 183.429688 262.574219 183.105469 C 262.574219 182.855469 262.5 182.652344 262.355469 182.496094 C 262.207031 182.332031 261.96875 182.207031 261.636719 182.121094 L 260.574219 181.855469 C 260 181.722656 259.582031 181.507812 259.324219 181.214844 C 259.0625 180.914062 258.933594 180.542969 258.933594 180.105469 C 258.933594 179.761719 259.019531 179.464844 259.199219 179.214844 C 259.375 178.957031 259.625 178.757812 259.949219 178.621094 C 260.28125 178.476562 260.675781 178.402344 261.136719 178.402344 C 261.71875 178.402344 262.175781 178.488281 262.511719 178.652344 C 262.84375 178.808594 263.105469 179.035156 263.292969 179.324219 L 262.761719 179.839844 L 262.652344 179.839844 C 262.441406 179.613281 262.21875 179.445312 261.980469 179.339844 C 261.75 179.238281 261.46875 179.183594 261.136719 179.183594 C 260.71875 179.183594 260.394531 179.261719 260.167969 179.417969 C 259.949219 179.566406 259.839844 179.777344 259.839844 180.058594 C 259.839844 180.320312 259.917969 180.527344 260.074219 180.683594 C 260.230469 180.839844 260.503906 180.964844 260.902344 181.058594 L 261.949219 181.308594 C 262.5 181.445312 262.894531 181.664062 263.136719 181.964844 C 263.386719 182.269531 263.511719 182.644531 263.511719 183.089844 C 263.511719 183.464844 263.421875 183.792969 263.246094 184.074219 C 263.066406 184.355469 262.800781 184.582031 262.449219 184.746094 C 262.09375 184.902344 261.660156 184.980469 261.152344 184.980469 Z M 261.152344 184.980469 "/>
<path style=" stroke:none;fill-rule:nonzero;fill:rgb(0%,0%,0%);fill-opacity:1;" d="M 268.394531 183.855469 L 268.691406 184.527344 C 268.542969 184.675781 268.347656 184.785156 268.097656 184.855469 C 267.855469 184.9375 267.597656 184.980469 267.316406 184.980469 C 266.105469 184.980469 265.503906 184.367188 265.503906 183.136719 L 265.503906 179.292969 L 264.394531 179.292969 L 264.394531 178.527344 L 265.503906 178.527344 L 265.503906 177.183594 L 266.441406 177.027344 L 266.441406 178.527344 L 268.472656 178.527344 L 268.472656 179.292969 L 266.441406 179.292969 L 266.441406 183.042969 C 266.441406 183.773438 266.753906 184.136719 267.378906 184.136719 C 267.722656 184.136719 268.019531 184.042969 268.269531 183.855469 Z M 268.394531 183.855469 "/>
<path style=" stroke:none;fill-rule:nonzero;fill:rgb(0%,0%,0%);fill-opacity:1;" d="M 272.554688 184.980469 C 271.960938 184.980469 271.4375 184.855469 270.992188 184.605469 C 270.554688 184.347656 270.214844 183.972656 269.976562 183.480469 C 269.734375 182.992188 269.617188 182.398438 269.617188 181.699219 C 269.617188 180.992188 269.734375 180.394531 269.976562 179.902344 C 270.214844 179.414062 270.554688 179.042969 270.992188 178.792969 C 271.4375 178.535156 271.960938 178.402344 272.554688 178.402344 C 273.15625 178.402344 273.679688 178.535156 274.117188 178.792969 C 274.5625 179.042969 274.902344 179.414062 275.132812 179.902344 C 275.371094 180.394531 275.492188 180.992188 275.492188 181.699219 C 275.492188 182.398438 275.371094 182.992188 275.132812 183.480469 C 274.902344 183.972656 274.5625 184.347656 274.117188 184.605469 C 273.679688 184.855469 273.15625 184.980469 272.554688 184.980469 Z M 272.554688 184.136719 C 273.1875 184.136719 273.671875 183.941406 274.007812 183.542969 C 274.339844 183.148438 274.507812 182.535156 274.507812 181.699219 C 274.507812 180.855469 274.339844 180.238281 274.007812 179.839844 C 273.671875 179.445312 273.1875 179.246094 272.554688 179.246094 C 271.929688 179.246094 271.445312 179.449219 271.101562 179.855469 C 270.765625 180.253906 270.601562 180.867188 270.601562 181.699219 C 270.601562 182.535156 270.765625 183.148438 271.101562 183.542969 C 271.445312 183.941406 271.929688 184.136719 272.554688 184.136719 Z M 272.554688 184.136719 "/>
</g>
</svg>
