<?xml version="1.0" encoding="UTF-8"?>
<svg xmlns="http://www.w3.org/2000/svg" xmlns:xlink="http://www.w3.org/1999/xlink" width="130px" height="36px" viewBox="0 0 97 27" version="1.1">
<g id="surface1">
<path style=" stroke:none;fill-rule:nonzero;fill:rgb(14.509804%,38.823529%,92.156863%);fill-opacity:1;" d="M 3.730469 7.5 L 22.382812 7.5 L 22.382812 25.5 L 3.730469 25.5 Z M 3.730469 7.5 "/>
<path style=" stroke:none;fill-rule:evenodd;fill:rgb(100%,100%,100%);fill-opacity:1;" d="M 15.972656 3.714844 C 14.574219 2.308594 11.390625 2.308594 9.996094 3.714844 C 9.113281 4.601562 8.617188 5.804688 8.617188 7.058594 L 8.617188 11.1875 C 8.617188 11.714844 8.191406 12.140625 7.664062 12.140625 C 7.140625 12.140625 6.714844 11.714844 6.714844 11.1875 L 6.714844 7.058594 C 6.714844 5.296875 7.410156 3.609375 8.652344 2.363281 C 10.789062 0.210938 15.175781 0.210938 17.316406 2.363281 C 18.554688 3.609375 19.398438 5.296875 19.398438 7.058594 L 19.398438 11.1875 C 19.398438 11.714844 18.972656 12.140625 18.449219 12.140625 C 17.925781 12.140625 17.5 11.714844 17.5 11.1875 L 17.5 7.058594 C 17.5 5.804688 16.855469 4.601562 15.972656 3.714844 Z M 15.972656 3.714844 "/>
<path style=" stroke:none;fill-rule:nonzero;fill:rgb(100%,100%,100%);fill-opacity:1;" d="M 3.730469 23.25 L 22.382812 23.25 L 22.382812 26.433594 L 3.730469 26.433594 Z M 3.730469 23.25 "/>
<path style=" stroke:none;fill-rule:nonzero;fill:rgb(100%,100%,100%);fill-opacity:1;" d="M 33.84375 11.171875 C 34.742188 11.171875 35.554688 11.382812 36.28125 11.800781 C 37.019531 12.210938 37.601562 12.792969 38.019531 13.546875 C 38.4375 14.292969 38.644531 15.160156 38.644531 16.15625 C 38.644531 17.152344 38.4375 18.03125 38.019531 18.785156 C 37.601562 19.53125 37.019531 20.113281 36.28125 20.53125 C 35.554688 20.941406 34.742188 21.144531 33.84375 21.144531 C 32.519531 21.144531 31.511719 20.722656 30.820312 19.882812 L 30.820312 21 L 28.152344 21 L 28.152344 7.644531 L 30.945312 7.644531 L 30.945312 12.34375 C 31.648438 11.5625 32.617188 11.171875 33.84375 11.171875 Z M 33.363281 18.839844 C 34.078125 18.839844 34.664062 18.601562 35.117188 18.121094 C 35.582031 17.628906 35.816406 16.972656 35.816406 16.15625 C 35.816406 15.34375 35.582031 14.695312 35.117188 14.214844 C 34.664062 13.722656 34.078125 13.476562 33.363281 13.476562 C 32.644531 13.476562 32.054688 13.722656 31.589844 14.214844 C 31.136719 14.695312 30.910156 15.34375 30.910156 16.15625 C 30.910156 16.972656 31.136719 17.628906 31.589844 18.121094 C 32.054688 18.601562 32.644531 18.839844 33.363281 18.839844 Z M 44.242188 11.171875 C 45.734375 11.171875 46.882812 11.53125 47.683594 12.253906 C 48.480469 12.960938 48.882812 14.035156 48.882812 15.472656 L 48.882812 21 L 46.265625 21 L 46.265625 19.792969 C 45.742188 20.695312 44.761719 21.144531 43.332031 21.144531 C 42.589844 21.144531 41.945312 21.019531 41.394531 20.765625 C 40.859375 20.515625 40.445312 20.164062 40.160156 19.722656 C 39.875 19.277344 39.730469 18.773438 39.730469 18.210938 C 39.730469 17.308594 40.066406 16.601562 40.734375 16.085938 C 41.414062 15.570312 42.457031 15.3125 43.867188 15.3125 L 46.089844 15.3125 C 46.089844 14.699219 45.902344 14.230469 45.53125 13.90625 C 45.164062 13.570312 44.609375 13.402344 43.867188 13.402344 C 43.355469 13.402344 42.847656 13.488281 42.34375 13.65625 C 41.855469 13.8125 41.4375 14.027344 41.089844 14.304688 L 40.089844 12.34375 C 40.613281 11.96875 41.242188 11.683594 41.96875 11.476562 C 42.710938 11.273438 43.46875 11.171875 44.242188 11.171875 Z M 44.027344 19.253906 C 44.507812 19.253906 44.929688 19.144531 45.300781 18.929688 C 45.671875 18.703125 45.933594 18.371094 46.089844 17.941406 L 46.089844 16.949219 L 44.171875 16.949219 C 43.027344 16.949219 42.453125 17.328125 42.453125 18.085938 C 42.453125 18.445312 42.589844 18.730469 42.863281 18.949219 C 43.152344 19.152344 43.539062 19.253906 44.027344 19.253906 Z M 61.453125 11.316406 L 61.453125 19.378906 C 61.453125 21.15625 60.992188 22.476562 60.074219 23.339844 C 59.15625 24.203125 57.8125 24.636719 56.046875 24.636719 C 55.113281 24.636719 54.230469 24.523438 53.394531 24.292969 C 52.558594 24.066406 51.867188 23.734375 51.316406 23.304688 L 52.429688 21.289062 C 52.835938 21.625 53.347656 21.886719 53.96875 22.078125 C 54.589844 22.285156 55.210938 22.386719 55.832031 22.386719 C 56.796875 22.386719 57.507812 22.164062 57.960938 21.71875 C 58.425781 21.289062 58.660156 20.628906 58.660156 19.738281 L 58.660156 19.324219 C 57.933594 20.128906 56.917969 20.53125 55.617188 20.53125 C 54.730469 20.53125 53.921875 20.339844 53.179688 19.957031 C 52.453125 19.558594 51.871094 19.007812 51.441406 18.300781 C 51.011719 17.59375 50.796875 16.777344 50.796875 15.851562 C 50.796875 14.929688 51.011719 14.113281 51.441406 13.402344 C 51.871094 12.695312 52.453125 12.148438 53.179688 11.765625 C 53.921875 11.371094 54.730469 11.171875 55.617188 11.171875 C 57.011719 11.171875 58.074219 11.632812 58.804688 12.558594 L 58.804688 11.316406 Z M 56.171875 18.226562 C 56.910156 18.226562 57.515625 18.011719 57.980469 17.578125 C 58.457031 17.136719 58.695312 16.558594 58.695312 15.851562 C 58.695312 15.144531 58.457031 14.574219 57.980469 14.140625 C 57.515625 13.699219 56.910156 13.476562 56.171875 13.476562 C 55.429688 13.476562 54.820312 13.699219 54.34375 14.140625 C 53.867188 14.574219 53.628906 15.144531 53.628906 15.851562 C 53.628906 16.558594 53.867188 17.136719 54.34375 17.578125 C 54.820312 18.011719 55.429688 18.226562 56.171875 18.226562 Z M 64.054688 11.316406 L 66.847656 11.316406 L 66.847656 21 L 64.054688 21 Z M 65.449219 9.964844 C 64.9375 9.964844 64.519531 9.816406 64.195312 9.515625 C 63.875 9.214844 63.714844 8.84375 63.714844 8.398438 C 63.714844 7.957031 63.875 7.585938 64.195312 7.285156 C 64.519531 6.984375 64.9375 6.835938 65.449219 6.835938 C 65.964844 6.835938 66.382812 6.976562 66.703125 7.265625 C 67.027344 7.554688 67.1875 7.914062 67.1875 8.347656 C 67.1875 8.8125 67.027344 9.203125 66.703125 9.515625 C 66.382812 9.816406 65.964844 9.964844 65.449219 9.964844 Z M 72.679688 21.144531 C 71.882812 21.144531 71.097656 21.046875 70.335938 20.855469 C 69.570312 20.652344 68.960938 20.398438 68.507812 20.101562 L 69.441406 18.085938 C 69.871094 18.359375 70.390625 18.589844 70.996094 18.769531 C 71.605469 18.9375 72.203125 19.019531 72.789062 19.019531 C 73.96875 19.019531 74.5625 18.726562 74.5625 18.136719 C 74.5625 17.863281 74.402344 17.664062 74.078125 17.542969 C 73.753906 17.425781 73.261719 17.320312 72.589844 17.238281 C 71.804688 17.117188 71.152344 16.980469 70.640625 16.824219 C 70.125 16.667969 69.679688 16.390625 69.296875 15.996094 C 68.925781 15.601562 68.742188 15.035156 68.742188 14.304688 C 68.742188 13.691406 68.914062 13.152344 69.261719 12.683594 C 69.617188 12.203125 70.132812 11.832031 70.800781 11.566406 C 71.480469 11.304688 72.28125 11.171875 73.199219 11.171875 C 73.882812 11.171875 74.554688 11.25 75.222656 11.40625 C 75.90625 11.550781 76.464844 11.753906 76.90625 12.019531 L 75.976562 14.015625 C 75.128906 13.535156 74.203125 13.296875 73.199219 13.296875 C 72.605469 13.296875 72.15625 13.378906 71.859375 13.546875 C 71.558594 13.714844 71.410156 13.933594 71.410156 14.195312 C 71.410156 14.496094 71.570312 14.707031 71.894531 14.824219 C 72.214844 14.945312 72.730469 15.058594 73.433594 15.167969 C 74.222656 15.300781 74.867188 15.445312 75.367188 15.601562 C 75.867188 15.742188 76.304688 16.015625 76.675781 16.410156 C 77.042969 16.804688 77.230469 17.359375 77.230469 18.066406 C 77.230469 18.664062 77.050781 19.199219 76.691406 19.667969 C 76.335938 20.136719 75.808594 20.503906 75.117188 20.765625 C 74.4375 21.019531 73.625 21.144531 72.679688 21.144531 Z M 85.167969 20.53125 C 84.894531 20.734375 84.550781 20.890625 84.148438 21 C 83.753906 21.097656 83.335938 21.144531 82.894531 21.144531 C 81.746094 21.144531 80.859375 20.851562 80.226562 20.261719 C 79.605469 19.675781 79.292969 18.808594 79.292969 17.671875 L 79.292969 13.691406 L 77.808594 13.691406 L 77.808594 11.53125 L 79.292969 11.53125 L 79.292969 9.175781 L 82.085938 9.175781 L 82.085938 11.53125 L 84.488281 11.53125 L 84.488281 13.691406 L 82.085938 13.691406 L 82.085938 17.632812 C 82.085938 18.042969 82.1875 18.359375 82.390625 18.589844 C 82.605469 18.804688 82.90625 18.910156 83.289062 18.910156 C 83.730469 18.910156 84.105469 18.792969 84.414062 18.550781 Z M 91.023438 21.144531 C 90.007812 21.144531 89.09375 20.933594 88.28125 20.515625 C 87.484375 20.082031 86.855469 19.488281 86.402344 18.730469 C 85.949219 17.976562 85.722656 17.117188 85.722656 16.15625 C 85.722656 15.199219 85.949219 14.339844 86.402344 13.585938 C 86.855469 12.828125 87.484375 12.238281 88.28125 11.820312 C 89.09375 11.386719 90.007812 11.171875 91.023438 11.171875 C 92.039062 11.171875 92.945312 11.386719 93.746094 11.820312 C 94.542969 12.238281 95.171875 12.828125 95.625 13.585938 C 96.078125 14.339844 96.304688 15.199219 96.304688 16.15625 C 96.304688 17.117188 96.078125 17.976562 95.625 18.730469 C 95.171875 19.488281 94.542969 20.082031 93.746094 20.515625 C 92.945312 20.933594 92.039062 21.144531 91.023438 21.144531 Z M 91.023438 18.839844 C 91.738281 18.839844 92.324219 18.601562 92.777344 18.121094 C 93.242188 17.628906 93.476562 16.972656 93.476562 16.15625 C 93.476562 15.34375 93.242188 14.695312 92.777344 14.214844 C 92.324219 13.722656 91.738281 13.476562 91.023438 13.476562 C 90.304688 13.476562 89.714844 13.722656 89.25 14.214844 C 88.785156 14.695312 88.550781 15.34375 88.550781 16.15625 C 88.550781 16.972656 88.785156 17.628906 89.25 18.121094 C 89.714844 18.601562 90.304688 18.839844 91.023438 18.839844 Z M 91.023438 18.839844 "/>
</g>
</svg>
