<svg xmlns="http://www.w3.org/2000/svg" xmlns:xlink="http://www.w3.org/1999/xlink" width="500" zoomAndPan="magnify" viewBox="0 0 375 374.999991" height="500" preserveAspectRatio="xMidYMid meet" version="1.0"><defs><g/></defs><rect x="-37.5" width="450" fill="#ffffff" y="-37.499999" height="449.999989" fill-opacity="1"/><rect x="-37.5" width="450" fill="#ffffff" y="-37.499999" height="449.999989" fill-opacity="1"/><path fill="#0041ff" d="M 102.394531 147.828125 L 124.707031 147.828125 L 124.707031 169.328125 L 102.394531 169.328125 Z M 102.394531 147.828125 " fill-opacity="1" fill-rule="nonzero"/><path fill="#000000" d="M 117.035156 143.304688 C 115.363281 141.628906 111.558594 141.628906 109.886719 143.304688 C 108.832031 144.367188 108.238281 145.804688 108.238281 147.300781 L 108.238281 152.230469 C 108.238281 152.863281 107.730469 153.371094 107.101562 153.371094 C 106.472656 153.371094 105.964844 152.863281 105.964844 152.230469 L 105.964844 147.300781 C 105.964844 145.199219 106.796875 143.179688 108.28125 141.691406 C 110.839844 139.125 116.085938 139.125 118.644531 141.691406 C 120.125 143.179688 121.136719 145.199219 121.136719 147.300781 L 121.136719 152.230469 C 121.136719 152.863281 120.628906 153.371094 120 153.371094 C 119.371094 153.371094 118.863281 152.863281 118.863281 152.230469 L 118.863281 147.300781 C 118.863281 145.804688 118.089844 144.367188 117.035156 143.304688 Z M 117.035156 143.304688 " fill-opacity="1" fill-rule="evenodd"/><path fill="#000311" d="M 102.394531 166.640625 L 124.707031 166.640625 L 124.707031 170.445312 L 102.394531 170.445312 Z M 102.394531 166.640625 " fill-opacity="1" fill-rule="nonzero"/><g fill="#000000" fill-opacity="1"><g transform="translate(141.657007, 156.187759)"><g><path d="M 1.71875 0 L 1.71875 -7.84375 L 0.328125 -7.84375 L 0.328125 -9.796875 L 1.71875 -9.796875 C 1.613281 -10.210938 1.5625 -10.597656 1.5625 -10.953125 C 1.5625 -11.578125 1.703125 -12.109375 1.984375 -12.546875 C 2.265625 -12.992188 2.671875 -13.332031 3.203125 -13.5625 C 3.742188 -13.789062 4.378906 -13.90625 5.109375 -13.90625 C 6.191406 -13.90625 7 -13.71875 7.53125 -13.34375 L 6.953125 -11.53125 L 6.765625 -11.5 C 6.398438 -11.757812 5.929688 -11.890625 5.359375 -11.890625 C 4.910156 -11.890625 4.578125 -11.78125 4.359375 -11.5625 C 4.140625 -11.34375 4.03125 -11.050781 4.03125 -10.6875 C 4.03125 -10.519531 4.039062 -10.367188 4.0625 -10.234375 C 4.082031 -10.109375 4.117188 -9.960938 4.171875 -9.796875 L 6.96875 -9.796875 L 6.96875 -7.84375 L 4.171875 -7.84375 L 4.171875 0 Z M 1.71875 0 "/></g></g><g transform="translate(148.722576, 156.187759)"><g><path d="M 4.0625 0.1875 C 3.175781 0.1875 2.5 -0.0507812 2.03125 -0.53125 C 1.570312 -1.007812 1.34375 -1.734375 1.34375 -2.703125 L 1.34375 -13.71875 L 3.8125 -13.71875 L 3.8125 -2.796875 C 3.8125 -2.203125 4.054688 -1.90625 4.546875 -1.90625 C 4.691406 -1.90625 4.84375 -1.925781 5 -1.96875 L 5.125 -1.9375 L 5.34375 -0.046875 C 5.207031 0.0234375 5.023438 0.0820312 4.796875 0.125 C 4.578125 0.164062 4.332031 0.1875 4.0625 0.1875 Z M 4.0625 0.1875 "/></g></g><g transform="translate(154.350176, 156.187759)"><g><path d="M 9.671875 -4.34375 L 3.375 -4.34375 C 3.445312 -3.488281 3.691406 -2.867188 4.109375 -2.484375 C 4.523438 -2.097656 5.085938 -1.90625 5.796875 -1.90625 C 6.359375 -1.90625 6.8125 -2.007812 7.15625 -2.21875 C 7.507812 -2.425781 7.796875 -2.742188 8.015625 -3.171875 L 8.203125 -3.171875 L 9.828125 -2.125 C 9.515625 -1.4375 9.035156 -0.878906 8.390625 -0.453125 C 7.742188 -0.0234375 6.878906 0.1875 5.796875 0.1875 C 4.785156 0.1875 3.910156 -0.00390625 3.171875 -0.390625 C 2.441406 -0.773438 1.875 -1.347656 1.46875 -2.109375 C 1.070312 -2.867188 0.875 -3.796875 0.875 -4.890625 C 0.875 -6.003906 1.082031 -6.941406 1.5 -7.703125 C 1.925781 -8.460938 2.492188 -9.03125 3.203125 -9.40625 C 3.921875 -9.78125 4.726562 -9.96875 5.625 -9.96875 C 7.007812 -9.96875 8.066406 -9.597656 8.796875 -8.859375 C 9.535156 -8.128906 9.90625 -7.054688 9.90625 -5.640625 C 9.90625 -5.128906 9.890625 -4.734375 9.859375 -4.453125 Z M 7.5625 -5.921875 C 7.539062 -6.671875 7.367188 -7.210938 7.046875 -7.546875 C 6.722656 -7.890625 6.25 -8.0625 5.625 -8.0625 C 4.382812 -8.0625 3.65625 -7.347656 3.4375 -5.921875 Z M 7.5625 -5.921875 "/></g></g><g transform="translate(164.99291, 156.187759)"><g><path d="M 2.765625 0 L 0.171875 0 L 2.96875 -5.078125 L 0.3125 -9.78125 L 2.953125 -9.78125 L 4.640625 -6.5625 L 4.84375 -6.5625 L 6.546875 -9.78125 L 9.09375 -9.78125 L 6.53125 -5.078125 L 9.25 0 L 6.625 0 L 4.78125 -3.578125 L 4.578125 -3.578125 Z M 2.765625 0 "/></g></g><g transform="translate(174.410709, 156.187759)"><g><path d="M 2.640625 -10.953125 C 2.191406 -10.953125 1.828125 -11.085938 1.546875 -11.359375 C 1.273438 -11.628906 1.140625 -11.976562 1.140625 -12.40625 C 1.140625 -12.820312 1.273438 -13.164062 1.546875 -13.4375 C 1.828125 -13.707031 2.191406 -13.84375 2.640625 -13.84375 C 2.929688 -13.84375 3.191406 -13.78125 3.421875 -13.65625 C 3.648438 -13.53125 3.828125 -13.359375 3.953125 -13.140625 C 4.085938 -12.929688 4.15625 -12.6875 4.15625 -12.40625 C 4.15625 -12.125 4.085938 -11.875 3.953125 -11.65625 C 3.828125 -11.4375 3.648438 -11.265625 3.421875 -11.140625 C 3.191406 -11.015625 2.929688 -10.953125 2.640625 -10.953125 Z M 1.40625 0 L 1.40625 -9.78125 L 3.875 -9.78125 L 3.875 0 Z M 1.40625 0 "/></g></g><g transform="translate(179.683256, 156.187759)"><g><path d="M 5.703125 0.1875 C 4.753906 0.1875 3.914062 -0.0078125 3.1875 -0.40625 C 2.46875 -0.800781 1.898438 -1.378906 1.484375 -2.140625 C 1.078125 -2.898438 0.875 -3.816406 0.875 -4.890625 C 0.875 -5.960938 1.078125 -6.878906 1.484375 -7.640625 C 1.898438 -8.410156 2.46875 -8.988281 3.1875 -9.375 C 3.90625 -9.769531 4.726562 -9.96875 5.65625 -9.96875 C 7.71875 -9.96875 9.039062 -9.222656 9.625 -7.734375 L 7.9375 -6.515625 L 7.75 -6.515625 C 7.550781 -6.984375 7.289062 -7.328125 6.96875 -7.546875 C 6.644531 -7.773438 6.207031 -7.890625 5.65625 -7.890625 C 4.945312 -7.890625 4.394531 -7.644531 4 -7.15625 C 3.601562 -6.664062 3.40625 -5.910156 3.40625 -4.890625 C 3.40625 -3.878906 3.601562 -3.128906 4 -2.640625 C 4.40625 -2.148438 4.972656 -1.90625 5.703125 -1.90625 C 6.234375 -1.90625 6.679688 -2.046875 7.046875 -2.328125 C 7.421875 -2.617188 7.691406 -3.03125 7.859375 -3.5625 L 8.03125 -3.578125 L 9.78125 -2.625 C 9.539062 -1.800781 9.082031 -1.125 8.40625 -0.59375 C 7.738281 -0.0703125 6.835938 0.1875 5.703125 0.1875 Z M 5.703125 0.1875 "/></g></g><g transform="translate(189.775657, 156.187759)"><g><path d="M 3.8125 0.1875 C 3.1875 0.1875 2.640625 0.0703125 2.171875 -0.15625 C 1.710938 -0.382812 1.359375 -0.722656 1.109375 -1.171875 C 0.867188 -1.617188 0.75 -2.15625 0.75 -2.78125 C 0.75 -3.363281 0.867188 -3.847656 1.109375 -4.234375 C 1.359375 -4.628906 1.742188 -4.953125 2.265625 -5.203125 C 2.785156 -5.460938 3.46875 -5.660156 4.3125 -5.796875 C 4.894531 -5.890625 5.335938 -5.988281 5.640625 -6.09375 C 5.953125 -6.207031 6.160156 -6.335938 6.265625 -6.484375 C 6.367188 -6.628906 6.421875 -6.8125 6.421875 -7.03125 C 6.421875 -7.34375 6.3125 -7.582031 6.09375 -7.75 C 5.875 -7.914062 5.507812 -8 5 -8 C 4.457031 -8 3.941406 -7.875 3.453125 -7.625 C 2.960938 -7.382812 2.535156 -7.066406 2.171875 -6.671875 L 2 -6.671875 L 0.96875 -8.21875 C 1.46875 -8.769531 2.070312 -9.195312 2.78125 -9.5 C 3.5 -9.8125 4.28125 -9.96875 5.125 -9.96875 C 6.425781 -9.96875 7.363281 -9.691406 7.9375 -9.140625 C 8.519531 -8.597656 8.8125 -7.820312 8.8125 -6.8125 L 8.8125 -2.5625 C 8.8125 -2.125 9.003906 -1.90625 9.390625 -1.90625 C 9.535156 -1.90625 9.679688 -1.929688 9.828125 -1.984375 L 9.953125 -1.9375 L 10.125 -0.234375 C 9.988281 -0.140625 9.796875 -0.0625 9.546875 0 C 9.304688 0.0507812 9.039062 0.078125 8.75 0.078125 C 8.164062 0.078125 7.707031 -0.0351562 7.375 -0.265625 C 7.050781 -0.492188 6.820312 -0.847656 6.6875 -1.328125 L 6.5 -1.34375 C 6.019531 -0.320312 5.125 0.1875 3.8125 0.1875 Z M 4.59375 -1.65625 C 5.164062 -1.65625 5.617188 -1.84375 5.953125 -2.21875 C 6.296875 -2.601562 6.46875 -3.132812 6.46875 -3.8125 L 6.46875 -4.8125 L 6.296875 -4.84375 C 6.148438 -4.726562 5.957031 -4.628906 5.71875 -4.546875 C 5.476562 -4.460938 5.132812 -4.382812 4.6875 -4.3125 C 4.15625 -4.21875 3.769531 -4.0625 3.53125 -3.84375 C 3.300781 -3.632812 3.1875 -3.332031 3.1875 -2.9375 C 3.1875 -2.519531 3.3125 -2.203125 3.5625 -1.984375 C 3.8125 -1.765625 4.15625 -1.65625 4.59375 -1.65625 Z M 4.59375 -1.65625 "/></g></g><g transform="translate(200.098843, 156.187759)"><g><path d="M 1.40625 0 L 1.40625 -9.78125 L 3.796875 -9.78125 L 3.796875 -8.328125 L 3.984375 -8.296875 C 4.222656 -8.835938 4.535156 -9.234375 4.921875 -9.484375 C 5.304688 -9.742188 5.769531 -9.875 6.3125 -9.875 C 6.875 -9.875 7.300781 -9.78125 7.59375 -9.59375 L 7.171875 -7.46875 L 6.984375 -7.4375 C 6.828125 -7.5 6.671875 -7.546875 6.515625 -7.578125 C 6.367188 -7.609375 6.191406 -7.625 5.984375 -7.625 C 5.296875 -7.625 4.769531 -7.378906 4.40625 -6.890625 C 4.050781 -6.410156 3.875 -5.640625 3.875 -4.578125 L 3.875 0 Z M 1.40625 0 "/></g></g><g transform="translate(207.776879, 156.187759)"><g><path d="M 6.75 -2.328125 L 7.390625 -0.515625 C 7.117188 -0.296875 6.78125 -0.125 6.375 0 C 5.976562 0.125 5.523438 0.1875 5.015625 0.1875 C 3.960938 0.1875 3.160156 -0.0976562 2.609375 -0.671875 C 2.054688 -1.253906 1.78125 -2.09375 1.78125 -3.1875 L 1.78125 -7.84375 L 0.296875 -7.84375 L 0.296875 -9.796875 L 1.78125 -9.796875 L 1.78125 -11.703125 L 4.234375 -12.109375 L 4.234375 -9.796875 L 7.015625 -9.796875 L 7.015625 -7.84375 L 4.234375 -7.84375 L 4.234375 -3.375 C 4.234375 -2.882812 4.332031 -2.53125 4.53125 -2.3125 C 4.738281 -2.09375 5.035156 -1.984375 5.421875 -1.984375 C 5.859375 -1.984375 6.238281 -2.097656 6.5625 -2.328125 Z M 6.75 -2.328125 "/></g></g></g><g fill="#000000" fill-opacity="1"><g transform="translate(135.956129, 174.406455)"><g><path d="M 0.984375 2.078125 C 0.816406 2.078125 0.660156 2.0625 0.515625 2.03125 C 0.367188 2.007812 0.242188 1.972656 0.140625 1.921875 L 0.28125 1.34375 L 0.359375 1.328125 C 0.429688 1.359375 0.519531 1.382812 0.625 1.40625 C 0.726562 1.4375 0.835938 1.453125 0.953125 1.453125 C 1.148438 1.453125 1.3125 1.425781 1.4375 1.375 C 1.570312 1.320312 1.6875 1.234375 1.78125 1.109375 C 1.875 0.984375 1.960938 0.8125 2.046875 0.59375 L 2.21875 0.109375 L 0.25 -4.90625 L 1.03125 -4.90625 L 2.578125 -0.90625 L 2.65625 -0.90625 L 4.15625 -4.90625 L 4.890625 -4.90625 L 2.703125 0.765625 C 2.578125 1.078125 2.4375 1.328125 2.28125 1.515625 C 2.132812 1.710938 1.953125 1.851562 1.734375 1.9375 C 1.523438 2.03125 1.273438 2.078125 0.984375 2.078125 Z M 0.984375 2.078125 "/></g></g><g transform="translate(141.125269, 174.406455)"><g><path d="M 2.8125 0.09375 C 2.351562 0.09375 1.953125 -0.00390625 1.609375 -0.203125 C 1.265625 -0.398438 1 -0.6875 0.8125 -1.0625 C 0.625 -1.445312 0.53125 -1.910156 0.53125 -2.453125 C 0.53125 -2.992188 0.625 -3.453125 0.8125 -3.828125 C 1 -4.210938 1.265625 -4.503906 1.609375 -4.703125 C 1.953125 -4.898438 2.351562 -5 2.8125 -5 C 3.28125 -5 3.679688 -4.898438 4.015625 -4.703125 C 4.359375 -4.503906 4.625 -4.210938 4.8125 -3.828125 C 5 -3.453125 5.09375 -2.992188 5.09375 -2.453125 C 5.09375 -1.910156 5 -1.445312 4.8125 -1.0625 C 4.625 -0.6875 4.359375 -0.398438 4.015625 -0.203125 C 3.679688 -0.00390625 3.28125 0.09375 2.8125 0.09375 Z M 2.8125 -0.5625 C 3.300781 -0.5625 3.675781 -0.710938 3.9375 -1.015625 C 4.195312 -1.328125 4.328125 -1.804688 4.328125 -2.453125 C 4.328125 -3.097656 4.195312 -3.570312 3.9375 -3.875 C 3.675781 -4.1875 3.300781 -4.34375 2.8125 -4.34375 C 2.320312 -4.34375 1.945312 -4.1875 1.6875 -3.875 C 1.425781 -3.570312 1.296875 -3.097656 1.296875 -2.453125 C 1.296875 -1.804688 1.425781 -1.328125 1.6875 -1.015625 C 1.945312 -0.710938 2.320312 -0.5625 2.8125 -0.5625 Z M 2.8125 -0.5625 "/></g></g><g transform="translate(146.752208, 174.406455)"><g><path d="M 2.421875 0.09375 C 1.867188 0.09375 1.457031 -0.0507812 1.1875 -0.34375 C 0.914062 -0.632812 0.78125 -1.066406 0.78125 -1.640625 L 0.78125 -4.90625 L 1.5 -4.90625 L 1.5 -1.65625 C 1.5 -0.90625 1.847656 -0.53125 2.546875 -0.53125 C 2.992188 -0.53125 3.347656 -0.675781 3.609375 -0.96875 C 3.867188 -1.257812 4 -1.734375 4 -2.390625 L 4 -4.90625 L 4.71875 -4.90625 L 4.71875 0 L 4.03125 0 L 4.03125 -0.765625 L 3.9375 -0.796875 C 3.769531 -0.492188 3.566406 -0.269531 3.328125 -0.125 C 3.097656 0.0195312 2.796875 0.09375 2.421875 0.09375 Z M 2.421875 0.09375 "/></g></g><g transform="translate(152.321368, 174.406455)"><g><path d="M 0.859375 0 L 0.859375 -4.90625 L 1.546875 -4.90625 L 1.546875 -4.140625 L 1.640625 -4.109375 C 1.867188 -4.671875 2.296875 -4.953125 2.921875 -4.953125 C 3.253906 -4.953125 3.503906 -4.890625 3.671875 -4.765625 L 3.484375 -4.15625 L 3.40625 -4.140625 C 3.21875 -4.234375 3.015625 -4.28125 2.796875 -4.28125 C 2.398438 -4.28125 2.097656 -4.128906 1.890625 -3.828125 C 1.679688 -3.535156 1.578125 -3.0625 1.578125 -2.40625 L 1.578125 0 Z M 0.859375 0 "/></g></g><g transform="translate(156.108218, 174.406455)"><g/></g><g transform="translate(158.339437, 174.406455)"><g><path d="M 3.109375 0 L 2.109375 0 L 0.234375 -4.90625 L 1.015625 -4.90625 L 2.5625 -0.828125 L 2.671875 -0.828125 L 4.203125 -4.90625 L 4.96875 -4.90625 Z M 3.109375 0 "/></g></g><g transform="translate(163.535245, 174.406455)"><g><path d="M 4.671875 -2.28125 L 1.296875 -2.28125 C 1.316406 -1.6875 1.457031 -1.25 1.71875 -0.96875 C 1.988281 -0.695312 2.359375 -0.5625 2.828125 -0.5625 C 3.171875 -0.5625 3.445312 -0.617188 3.65625 -0.734375 C 3.875 -0.859375 4.046875 -1.054688 4.171875 -1.328125 L 4.265625 -1.328125 L 4.734375 -1.046875 C 4.597656 -0.691406 4.367188 -0.410156 4.046875 -0.203125 C 3.734375 -0.00390625 3.328125 0.09375 2.828125 0.09375 C 2.347656 0.09375 1.9375 0 1.59375 -0.1875 C 1.257812 -0.375 1 -0.65625 0.8125 -1.03125 C 0.625 -1.414062 0.53125 -1.890625 0.53125 -2.453125 C 0.53125 -3.003906 0.628906 -3.472656 0.828125 -3.859375 C 1.023438 -4.242188 1.289062 -4.53125 1.625 -4.71875 C 1.957031 -4.90625 2.34375 -5 2.78125 -5 C 3.40625 -5 3.894531 -4.820312 4.25 -4.46875 C 4.601562 -4.113281 4.78125 -3.585938 4.78125 -2.890625 C 4.78125 -2.617188 4.773438 -2.4375 4.765625 -2.34375 Z M 4.0625 -2.890625 C 4.050781 -3.410156 3.9375 -3.789062 3.71875 -4.03125 C 3.5 -4.269531 3.1875 -4.390625 2.78125 -4.390625 C 2.351562 -4.390625 2.015625 -4.269531 1.765625 -4.03125 C 1.523438 -3.789062 1.378906 -3.410156 1.328125 -2.890625 Z M 4.0625 -2.890625 "/></g></g><g transform="translate(168.762165, 174.406455)"><g><path d="M 0.859375 0 L 0.859375 -4.90625 L 1.546875 -4.90625 L 1.546875 -4.140625 L 1.640625 -4.109375 C 1.867188 -4.671875 2.296875 -4.953125 2.921875 -4.953125 C 3.253906 -4.953125 3.503906 -4.890625 3.671875 -4.765625 L 3.484375 -4.15625 L 3.40625 -4.140625 C 3.21875 -4.234375 3.015625 -4.28125 2.796875 -4.28125 C 2.398438 -4.28125 2.097656 -4.128906 1.890625 -3.828125 C 1.679688 -3.535156 1.578125 -3.0625 1.578125 -2.40625 L 1.578125 0 Z M 0.859375 0 "/></g></g><g transform="translate(172.549016, 174.406455)"><g><path d="M 0.984375 2.078125 C 0.816406 2.078125 0.660156 2.0625 0.515625 2.03125 C 0.367188 2.007812 0.242188 1.972656 0.140625 1.921875 L 0.28125 1.34375 L 0.359375 1.328125 C 0.429688 1.359375 0.519531 1.382812 0.625 1.40625 C 0.726562 1.4375 0.835938 1.453125 0.953125 1.453125 C 1.148438 1.453125 1.3125 1.425781 1.4375 1.375 C 1.570312 1.320312 1.6875 1.234375 1.78125 1.109375 C 1.875 0.984375 1.960938 0.8125 2.046875 0.59375 L 2.21875 0.109375 L 0.25 -4.90625 L 1.03125 -4.90625 L 2.578125 -0.90625 L 2.65625 -0.90625 L 4.15625 -4.90625 L 4.890625 -4.90625 L 2.703125 0.765625 C 2.578125 1.078125 2.4375 1.328125 2.28125 1.515625 C 2.132812 1.710938 1.953125 1.851562 1.734375 1.9375 C 1.523438 2.03125 1.273438 2.078125 0.984375 2.078125 Z M 0.984375 2.078125 "/></g></g><g transform="translate(177.718155, 174.406455)"><g/></g><g transform="translate(179.949375, 174.406455)"><g><path d="M 2.8125 0.09375 C 2.351562 0.09375 1.953125 -0.00390625 1.609375 -0.203125 C 1.265625 -0.398438 1 -0.6875 0.8125 -1.0625 C 0.625 -1.445312 0.53125 -1.910156 0.53125 -2.453125 C 0.53125 -2.992188 0.625 -3.453125 0.8125 -3.828125 C 1 -4.210938 1.265625 -4.503906 1.609375 -4.703125 C 1.953125 -4.898438 2.351562 -5 2.8125 -5 C 3.28125 -5 3.679688 -4.898438 4.015625 -4.703125 C 4.359375 -4.503906 4.625 -4.210938 4.8125 -3.828125 C 5 -3.453125 5.09375 -2.992188 5.09375 -2.453125 C 5.09375 -1.910156 5 -1.445312 4.8125 -1.0625 C 4.625 -0.6875 4.359375 -0.398438 4.015625 -0.203125 C 3.679688 -0.00390625 3.28125 0.09375 2.8125 0.09375 Z M 2.8125 -0.5625 C 3.300781 -0.5625 3.675781 -0.710938 3.9375 -1.015625 C 4.195312 -1.328125 4.328125 -1.804688 4.328125 -2.453125 C 4.328125 -3.097656 4.195312 -3.570312 3.9375 -3.875 C 3.675781 -4.1875 3.300781 -4.34375 2.8125 -4.34375 C 2.320312 -4.34375 1.945312 -4.1875 1.6875 -3.875 C 1.425781 -3.570312 1.296875 -3.097656 1.296875 -2.453125 C 1.296875 -1.804688 1.425781 -1.328125 1.6875 -1.015625 C 1.945312 -0.710938 2.320312 -0.5625 2.8125 -0.5625 Z M 2.8125 -0.5625 "/></g></g><g transform="translate(185.576314, 174.406455)"><g><path d="M 2.4375 0 L 1.515625 0 L 0.3125 -4.90625 L 1.03125 -4.90625 L 1.96875 -0.84375 L 2.0625 -0.84375 L 3.203125 -4.90625 L 3.953125 -4.90625 L 5.140625 -0.84375 L 5.234375 -0.84375 L 6.140625 -4.90625 L 6.84375 -4.90625 L 5.65625 0 L 4.734375 0 L 3.609375 -3.8125 L 3.515625 -3.8125 Z M 2.4375 0 "/></g></g><g transform="translate(192.723328, 174.406455)"><g><path d="M 0.859375 0 L 0.859375 -4.90625 L 1.546875 -4.90625 L 1.546875 -4.140625 L 1.640625 -4.109375 C 1.796875 -4.398438 2 -4.617188 2.25 -4.765625 C 2.507812 -4.921875 2.820312 -5 3.1875 -5 C 3.78125 -5 4.207031 -4.847656 4.46875 -4.546875 C 4.738281 -4.242188 4.875 -3.78125 4.875 -3.15625 L 4.875 0 L 4.140625 0 L 4.140625 -3.140625 C 4.140625 -3.429688 4.101562 -3.664062 4.03125 -3.84375 C 3.957031 -4.03125 3.835938 -4.164062 3.671875 -4.25 C 3.515625 -4.332031 3.3125 -4.375 3.0625 -4.375 C 2.613281 -4.375 2.253906 -4.222656 1.984375 -3.921875 C 1.710938 -3.628906 1.578125 -3.160156 1.578125 -2.515625 L 1.578125 0 Z M 0.859375 0 "/></g></g><g transform="translate(198.368046, 174.406455)"><g/></g><g transform="translate(200.599265, 174.406455)"><g><path d="M 0.984375 0 L 0.984375 -6.5 L 3.453125 -6.5 C 3.847656 -6.5 4.1875 -6.4375 4.46875 -6.3125 C 4.75 -6.1875 4.957031 -6.003906 5.09375 -5.765625 C 5.238281 -5.523438 5.3125 -5.242188 5.3125 -4.921875 C 5.3125 -4.640625 5.234375 -4.382812 5.078125 -4.15625 C 4.921875 -3.925781 4.703125 -3.75 4.421875 -3.625 L 4.421875 -3.53125 C 4.859375 -3.425781 5.1875 -3.234375 5.40625 -2.953125 C 5.632812 -2.671875 5.75 -2.316406 5.75 -1.890625 C 5.75 -1.285156 5.566406 -0.816406 5.203125 -0.484375 C 4.847656 -0.160156 4.328125 0 3.640625 0 Z M 3.40625 -3.765625 C 3.769531 -3.765625 4.050781 -3.859375 4.25 -4.046875 C 4.445312 -4.242188 4.546875 -4.503906 4.546875 -4.828125 C 4.546875 -5.171875 4.445312 -5.429688 4.25 -5.609375 C 4.0625 -5.785156 3.78125 -5.875 3.40625 -5.875 L 1.75 -5.875 L 1.75 -3.765625 Z M 3.578125 -0.625 C 4.503906 -0.625 4.96875 -1.046875 4.96875 -1.890625 C 4.96875 -2.722656 4.503906 -3.140625 3.578125 -3.140625 L 1.75 -3.140625 L 1.75 -0.625 Z M 3.578125 -0.625 "/></g></g><g transform="translate(206.852902, 174.406455)"><g><path d="M 5.859375 0 L 5.03125 0 L 4.4375 -1.78125 L 1.65625 -1.78125 L 1.0625 0 L 0.265625 0 L 2.53125 -6.5 L 3.578125 -6.5 Z M 3 -5.71875 L 1.875 -2.421875 L 4.21875 -2.421875 L 3.109375 -5.71875 Z M 3 -5.71875 "/></g></g><g transform="translate(212.959865, 174.406455)"><g><path d="M 3.421875 0.09375 C 2.878906 0.09375 2.398438 -0.03125 1.984375 -0.28125 C 1.566406 -0.53125 1.238281 -0.90625 1 -1.40625 C 0.769531 -1.90625 0.65625 -2.519531 0.65625 -3.25 C 0.65625 -3.976562 0.78125 -4.59375 1.03125 -5.09375 C 1.28125 -5.59375 1.625 -5.96875 2.0625 -6.21875 C 2.507812 -6.46875 3.023438 -6.59375 3.609375 -6.59375 C 4.234375 -6.59375 4.742188 -6.476562 5.140625 -6.25 C 5.546875 -6.03125 5.828125 -5.695312 5.984375 -5.25 L 5.5 -4.96875 L 5.375 -4.96875 C 5.207031 -5.300781 4.976562 -5.539062 4.6875 -5.6875 C 4.40625 -5.832031 4.046875 -5.90625 3.609375 -5.90625 C 2.179688 -5.90625 1.46875 -5.019531 1.46875 -3.25 C 1.46875 -2.332031 1.644531 -1.660156 2 -1.234375 C 2.363281 -0.804688 2.867188 -0.59375 3.515625 -0.59375 C 4.109375 -0.59375 4.550781 -0.726562 4.84375 -1 C 5.132812 -1.269531 5.28125 -1.695312 5.28125 -2.28125 L 5.28125 -2.84375 L 3.4375 -2.84375 L 3.4375 -3.46875 L 6.03125 -3.46875 L 6.03125 0 L 5.328125 0 L 5.328125 -0.875 L 5.234375 -0.890625 C 5.054688 -0.554688 4.8125 -0.304688 4.5 -0.140625 C 4.195312 0.015625 3.835938 0.09375 3.421875 0.09375 Z M 3.421875 0.09375 "/></g></g><g transform="translate(219.715748, 174.406455)"><g><path d="M 1.21875 -5.859375 C 1.0625 -5.859375 0.9375 -5.90625 0.84375 -6 C 0.75 -6.09375 0.703125 -6.210938 0.703125 -6.359375 C 0.703125 -6.515625 0.75 -6.640625 0.84375 -6.734375 C 0.9375 -6.828125 1.0625 -6.875 1.21875 -6.875 C 1.375 -6.875 1.5 -6.828125 1.59375 -6.734375 C 1.6875 -6.640625 1.734375 -6.515625 1.734375 -6.359375 C 1.734375 -6.210938 1.6875 -6.09375 1.59375 -6 C 1.5 -5.90625 1.375 -5.859375 1.21875 -5.859375 Z M 0.859375 0 L 0.859375 -4.90625 L 1.578125 -4.90625 L 1.578125 0 Z M 0.859375 0 "/></g></g><g transform="translate(222.146977, 174.406455)"><g><path d="M 2.234375 0.09375 C 1.929688 0.09375 1.644531 0.0507812 1.375 -0.03125 C 1.113281 -0.113281 0.890625 -0.222656 0.703125 -0.359375 C 0.523438 -0.503906 0.398438 -0.664062 0.328125 -0.84375 L 0.765625 -1.296875 L 0.859375 -1.296875 C 1.015625 -1.046875 1.203125 -0.859375 1.421875 -0.734375 C 1.648438 -0.617188 1.921875 -0.5625 2.234375 -0.5625 C 2.597656 -0.5625 2.875 -0.628906 3.0625 -0.765625 C 3.25 -0.910156 3.34375 -1.109375 3.34375 -1.359375 C 3.34375 -1.546875 3.285156 -1.703125 3.171875 -1.828125 C 3.054688 -1.960938 2.875 -2.0625 2.625 -2.125 L 1.796875 -2.328125 C 1.347656 -2.429688 1.019531 -2.597656 0.8125 -2.828125 C 0.613281 -3.054688 0.515625 -3.34375 0.515625 -3.6875 C 0.515625 -3.957031 0.582031 -4.1875 0.71875 -4.375 C 0.851562 -4.570312 1.050781 -4.722656 1.3125 -4.828125 C 1.570312 -4.941406 1.878906 -5 2.234375 -5 C 2.679688 -5 3.035156 -4.9375 3.296875 -4.8125 C 3.554688 -4.6875 3.757812 -4.507812 3.90625 -4.28125 L 3.484375 -3.890625 L 3.40625 -3.890625 C 3.25 -4.066406 3.078125 -4.191406 2.890625 -4.265625 C 2.703125 -4.347656 2.484375 -4.390625 2.234375 -4.390625 C 1.910156 -4.390625 1.660156 -4.332031 1.484375 -4.21875 C 1.316406 -4.101562 1.234375 -3.9375 1.234375 -3.71875 C 1.234375 -3.519531 1.289062 -3.359375 1.40625 -3.234375 C 1.53125 -3.117188 1.742188 -3.019531 2.046875 -2.9375 L 2.859375 -2.75 C 3.285156 -2.644531 3.59375 -2.472656 3.78125 -2.234375 C 3.96875 -2.003906 4.0625 -1.710938 4.0625 -1.359375 C 4.0625 -1.078125 3.992188 -0.828125 3.859375 -0.609375 C 3.722656 -0.390625 3.515625 -0.21875 3.234375 -0.09375 C 2.960938 0.03125 2.628906 0.09375 2.234375 0.09375 Z M 2.234375 0.09375 "/></g></g><g transform="translate(226.680531, 174.406455)"><g><path d="M 3.3125 -0.78125 L 3.546875 -0.265625 C 3.429688 -0.140625 3.28125 -0.0507812 3.09375 0 C 2.90625 0.0625 2.703125 0.09375 2.484375 0.09375 C 1.546875 0.09375 1.078125 -0.378906 1.078125 -1.328125 L 1.078125 -4.3125 L 0.21875 -4.3125 L 0.21875 -4.90625 L 1.078125 -4.90625 L 1.078125 -5.953125 L 1.796875 -6.0625 L 1.796875 -4.90625 L 3.375 -4.90625 L 3.375 -4.3125 L 1.796875 -4.3125 L 1.796875 -1.40625 C 1.796875 -0.84375 2.039062 -0.5625 2.53125 -0.5625 C 2.800781 -0.5625 3.03125 -0.632812 3.21875 -0.78125 Z M 3.3125 -0.78125 "/></g></g><g transform="translate(230.414045, 174.406455)"><g><path d="M 2.8125 0.09375 C 2.351562 0.09375 1.953125 -0.00390625 1.609375 -0.203125 C 1.265625 -0.398438 1 -0.6875 0.8125 -1.0625 C 0.625 -1.445312 0.53125 -1.910156 0.53125 -2.453125 C 0.53125 -2.992188 0.625 -3.453125 0.8125 -3.828125 C 1 -4.210938 1.265625 -4.503906 1.609375 -4.703125 C 1.953125 -4.898438 2.351562 -5 2.8125 -5 C 3.28125 -5 3.679688 -4.898438 4.015625 -4.703125 C 4.359375 -4.503906 4.625 -4.210938 4.8125 -3.828125 C 5 -3.453125 5.09375 -2.992188 5.09375 -2.453125 C 5.09375 -1.910156 5 -1.445312 4.8125 -1.0625 C 4.625 -0.6875 4.359375 -0.398438 4.015625 -0.203125 C 3.679688 -0.00390625 3.28125 0.09375 2.8125 0.09375 Z M 2.8125 -0.5625 C 3.300781 -0.5625 3.675781 -0.710938 3.9375 -1.015625 C 4.195312 -1.328125 4.328125 -1.804688 4.328125 -2.453125 C 4.328125 -3.097656 4.195312 -3.570312 3.9375 -3.875 C 3.675781 -4.1875 3.300781 -4.34375 2.8125 -4.34375 C 2.320312 -4.34375 1.945312 -4.1875 1.6875 -3.875 C 1.425781 -3.570312 1.296875 -3.097656 1.296875 -2.453125 C 1.296875 -1.804688 1.425781 -1.328125 1.6875 -1.015625 C 1.945312 -0.710938 2.320312 -0.5625 2.8125 -0.5625 Z M 2.8125 -0.5625 "/></g></g></g></svg>